<svg width="280pt" height="476pt" viewBox="0 0 279.74 476" xmlns="http://www.w3.org/2000/svg"><g class="graph" transform="translate(4 472)"><path fill="#fff" stroke="transparent" d="M-4 4v-476h279.74V4H-4z"/><g class="node"><ellipse fill="none" stroke="#000" cx="84.25" cy="-450" rx="27" ry="18"/><text text-anchor="middle" x="84.25" y="-446.3" font-family="Times,serif" font-size="14">run</text></g><g class="node"><ellipse fill="none" stroke="#000" cx="29.25" cy="-378" rx="27" ry="18"/><text text-anchor="middle" x="29.25" y="-374.3" font-family="Times,serif" font-size="14">intr</text></g><g class="edge"><path fill="none" stroke="#000" d="M72.31-433.81c-9.22 11.74-21.93 27.92-31.15 39.65"/></g><g class="node"><ellipse fill="none" stroke="#000" cx="170.25" cy="-378" rx="32.49" ry="18"/><text text-anchor="middle" x="170.25" y="-374.3" font-family="Times,serif" font-size="14">kernel</text></g><g class="edge"><path fill="none" stroke="#000" d="M100.83-435.5c14.84 12.07 36.53 29.73 51.7 42.08"/></g><g class="node"><ellipse fill="none" stroke="#000" cx="29.25" cy="-306" rx="29.5" ry="18"/><text text-anchor="middle" x="29.25" y="-302.3" font-family="Times,serif" font-size="14">runbl</text></g><g class="edge"><path fill="none" stroke="#000" d="M29.25-359.7v35.6"/></g><g class="edge"><path fill="none" stroke="#000" d="M42-322.3c7.81-10.11 17.4-23.99 23.25-37.7 10.17-23.83 15.11-53.65 17.34-72.01"/></g><g class="node"><ellipse fill="none" stroke="#000" cx="113.25" cy="-306" rx="37.09" ry="18"/><text text-anchor="middle" x="113.25" y="-302.3" font-family="Times,serif" font-size="14">zombie</text></g><g class="edge"><path fill="none" stroke="#000" d="M157.31-361.12c-9.19 11.3-21.51 26.42-30.78 37.81"/></g><g class="node"><ellipse fill="none" stroke="#000" cx="197.25" cy="-306" rx="28.7" ry="18"/><text text-anchor="middle" x="197.25" y="-302.3" font-family="Times,serif" font-size="14">sleep</text></g><g class="edge"><path fill="none" stroke="#000" d="M176.78-360.05c4.25 11 9.76 25.29 13.99 36.26"/></g><g class="node"><ellipse fill="none" stroke="#000" cx="188.25" cy="-18" rx="40.89" ry="18"/><text text-anchor="middle" x="188.25" y="-14.3" font-family="Times,serif" font-size="14">runmem</text></g><g class="edge"><path fill="none" stroke="#000" d="M191.04-364.11c14.06 9.6 32.19 23.82 44.21 40.11 25.33 34.34 36 46.33 36 89v74c0 40.45 1.96 54.41-19 89-9.87 16.29-26.58 29.87-40.45 39.21"/></g><g class="edge"><path fill="none" stroke="#000" d="M183.48-289.94c-8.37 10.03-18.51 23.89-24.23 37.94-12.21 29.98-8.55 39.72-11 72-1.21 15.95-2.47 20.19 0 36 6.22 39.85 22.96 84.35 32.7 108.02"/></g><g class="node"><ellipse fill="none" stroke="#000" cx="197.25" cy="-234" rx="28.7" ry="18"/><text text-anchor="middle" x="197.25" y="-230.3" font-family="Times,serif" font-size="14">swap</text></g><g class="edge"><path fill="none" stroke="#000" d="M197.25-287.7v35.6"/></g><g class="node"><ellipse fill="none" stroke="#000" cx="197.25" cy="-162" rx="40.09" ry="18"/><text text-anchor="middle" x="197.25" y="-158.3" font-family="Times,serif" font-size="14">runswap</text></g><g class="edge"><path fill="none" stroke="#000" d="M197.25-215.7v35.6"/></g><g class="edge"><path fill="none" stroke="#000" d="M190.36-144.14c-3.82 10.26-8.17 23.73-10.11 36.14-3.89 24.83.35 53.87 3.98 71.86"/></g><g class="node"><ellipse fill="none" stroke="#000" cx="216.25" cy="-90" rx="27" ry="18"/><text text-anchor="middle" x="216.25" y="-86.3" font-family="Times,serif" font-size="14">new</text></g><g class="edge"><path fill="none" stroke="#000" d="M201.85-144.05c2.98 11 6.86 25.29 9.84 36.26"/></g><g class="edge"><path fill="none" stroke="#000" d="M209.61-72.41c-4.4 11-10.15 25.38-14.58 36.45"/></g></g></svg>