<svg width="367pt" height="247pt" viewBox="0 0 367.31 246.71" xmlns="http://www.w3.org/2000/svg"><g class="graph" transform="translate(4 242.71)"><path fill="#fff" stroke="transparent" d="M-4 4v-246.71h367.31V4H-4z"/><g class="node"><ellipse fill="none" stroke="#000" cx="103.7" cy="-110.03" rx="27" ry="18"/><text text-anchor="middle" x="103.7" y="-106.33" font-family="Times,serif" font-size="14">run</text></g><g class="node"><ellipse fill="none" stroke="#000" cx="46.59" cy="-59.71" rx="27" ry="18"/><text text-anchor="middle" x="46.59" y="-56.01" font-family="Times,serif" font-size="14">intr</text></g><g class="edge"><path fill="none" stroke="#000" d="M87.18-95.48 63.27-74.4"/></g><g class="node"><ellipse fill="none" stroke="#000" cx="179.43" cy="-137.54" rx="33.29" ry="18"/><text text-anchor="middle" x="179.43" y="-133.84" font-family="Times,serif" font-size="14">kernel</text></g><g class="edge"><path fill="none" stroke="#000" d="M127.66-118.73c7.62-2.77 16.12-5.86 24-8.72"/></g><g class="node"><ellipse fill="none" stroke="#000" cx="29.9" cy="-126.16" rx="29.8" ry="18"/><text text-anchor="middle" x="29.9" y="-122.46" font-family="Times,serif" font-size="14">runbl</text></g><g class="edge"><path fill="none" stroke="#000" d="M42.12-77.51c-2.4-9.54-5.34-21.25-7.74-30.79"/></g><g class="edge"><path fill="none" stroke="#000" d="M58.22-119.97c6.5 1.42 13.38 2.92 19.77 4.32"/></g><g class="node"><ellipse fill="none" stroke="#000" cx="166.79" cy="-220.71" rx="37.89" ry="18"/><text text-anchor="middle" x="166.79" y="-217.01" font-family="Times,serif" font-size="14">zombie</text></g><g class="edge"><path fill="none" stroke="#000" d="M176.68-155.58c-2.12-13.96-5.04-33.18-7.16-47.12"/></g><g class="node"><ellipse fill="none" stroke="#000" cx="251.72" cy="-154.97" rx="29.5" ry="18"/><text text-anchor="middle" x="251.72" y="-151.27" font-family="Times,serif" font-size="14">sleep</text></g><g class="edge"><path fill="none" stroke="#000" d="m210.09-144.93 14.36-3.46"/></g><g class="node"><ellipse fill="none" stroke="#000" cx="238.64" cy="-83.36" rx="40.89" ry="18"/><text text-anchor="middle" x="238.64" y="-79.66" font-family="Times,serif" font-size="14">runmem</text></g><g class="edge"><path fill="none" stroke="#000" d="M196.55-121.87c7.52 6.88 16.35 14.96 23.97 21.93"/></g><g class="edge"><path fill="none" stroke="#000" d="M248.42-136.9c-1.96 10.77-4.46 24.41-6.43 35.23"/></g><g class="node"><ellipse fill="none" stroke="#000" cx="329.42" cy="-148.25" rx="29.5" ry="18"/><text text-anchor="middle" x="329.42" y="-144.55" font-family="Times,serif" font-size="14">swap</text></g><g class="edge"><path fill="none" stroke="#000" d="M281.1-152.43c6.27.54 12.9 1.12 19.17 1.66"/></g><g class="node"><ellipse fill="none" stroke="#000" cx="317.71" cy="-73.46" rx="41.69" ry="18"/><text text-anchor="middle" x="317.71" y="-69.76" font-family="Times,serif" font-size="14">runswap</text></g><g class="edge"><path fill="none" stroke="#000" d="M326.59-130.15c-1.83 11.68-4.2 26.8-6.03 38.49"/></g><g class="edge"><path fill="none" stroke="#000" d="M277.71-78.47c-.15-.01-.3-.03-.46-.05"/></g><g class="node"><ellipse fill="none" stroke="#000" cx="276.79" cy="-18" rx="27" ry="18"/><text text-anchor="middle" x="276.79" y="-14.3" font-family="Times,serif" font-size="14">new</text></g><g class="edge"><path fill="none" stroke="#000" d="M304.99-56.21c-5.17 6.99-11.1 15.03-16.19 21.92"/></g><g class="edge"><path fill="none" stroke="#000" d="M266.96-34.83 248.83-65.9"/></g></g></svg>