<svg width="224pt" height="407pt" viewBox="0 0 224 407" xmlns="http://www.w3.org/2000/svg"><g class="graph" transform="translate(4 403)"><path fill="#fff" stroke="transparent" d="M-4 4v-407h224V4H-4z"/><g class="cluster"><path fill="#d3d3d3" stroke="#d3d3d3" d="M8-64v-291h90v291H8z"/><text text-anchor="middle" x="53" y="-339.8" font-family="Times,serif" font-size="14">process #1</text></g><g class="cluster"><path fill="none" stroke="#00f" d="M132-64v-291h76v291h-76z"/><text text-anchor="middle" x="170" y="-339.8" font-family="Times,serif" font-size="14">process #2</text></g><g class="node"><ellipse fill="#fff" stroke="#fff" cx="63" cy="-306" rx="27" ry="18"/><text text-anchor="middle" x="63" y="-302.3" font-family="Times,serif" font-size="14">a0</text></g><g class="node"><ellipse fill="#fff" stroke="#fff" cx="63" cy="-234" rx="27" ry="18"/><text text-anchor="middle" x="63" y="-230.3" font-family="Times,serif" font-size="14">a1</text></g><g class="edge"><path fill="none" stroke="#000" d="M63-287.7v25.59"/><path stroke="#000" d="m66.5-262.1-3.5 10-3.5-10h7z"/></g><g class="node"><ellipse fill="#fff" stroke="#fff" cx="63" cy="-162" rx="27" ry="18"/><text text-anchor="middle" x="63" y="-158.3" font-family="Times,serif" font-size="14">a2</text></g><g class="edge"><path fill="none" stroke="#000" d="M63-215.7v25.59"/><path stroke="#000" d="m66.5-190.1-3.5 10-3.5-10h7z"/></g><g class="node"><ellipse fill="#d3d3d3" stroke="#000" cx="167" cy="-90" rx="27" ry="18"/><text text-anchor="middle" x="167" y="-86.3" font-family="Times,serif" font-size="14">b3</text></g><g class="edge"><path fill="none" stroke="#000" d="M74.33-217.53c18.13 24.75 53.79 73.45 75.2 102.68"/><path stroke="#000" d="m152.6-116.58 3.09 10.13-8.74-6 5.65-4.13z"/></g><g class="node"><ellipse fill="#fff" stroke="#fff" cx="63" cy="-90" rx="27" ry="18"/><text text-anchor="middle" x="63" y="-86.3" font-family="Times,serif" font-size="14">a3</text></g><g class="edge"><path fill="none" stroke="#000" d="M63-143.7v25.59"/><path stroke="#000" d="m66.5-118.1-3.5 10-3.5-10h7z"/></g><g class="edge"><path fill="none" stroke="#000" d="M49.25-105.93C41.04-115.9 31.38-129.75 27-144c-14.11-45.88-14.11-62.12 0-108 3.29-10.69 9.54-21.15 15.93-29.92"/><path stroke="#000" d="m40.35-284.31 8.9-5.76-3.37 10.05-5.53-4.29z"/></g><g class="node"><ellipse fill="none" stroke="#000" cx="115" cy="-18" rx="27" ry="18"/><text text-anchor="middle" x="115" y="-14.3" font-family="Times,serif" font-size="14">end</text></g><g class="edge"><path fill="none" stroke="#000" d="M74.54-73.46c6.73 9.06 15.36 20.67 22.92 30.85"/><path stroke="#000" d="m100.34-44.61 3.15 10.12-8.77-5.94 5.62-4.18z"/></g><g class="node"><ellipse fill="#d3d3d3" stroke="#000" cx="167" cy="-306" rx="27" ry="18"/><text text-anchor="middle" x="167" y="-302.3" font-family="Times,serif" font-size="14">b0</text></g><g class="node"><ellipse fill="#d3d3d3" stroke="#000" cx="170" cy="-234" rx="27" ry="18"/><text text-anchor="middle" x="170" y="-230.3" font-family="Times,serif" font-size="14">b1</text></g><g class="edge"><path fill="none" stroke="#000" d="M167.74-287.7c.33 7.72.73 16.99 1.1 25.59"/><path stroke="#000" d="m172.34-262.25-3.07 10.15-3.93-9.85 7-.3z"/></g><g class="node"><ellipse fill="#d3d3d3" stroke="#000" cx="173" cy="-162" rx="27" ry="18"/><text text-anchor="middle" x="173" y="-158.3" font-family="Times,serif" font-size="14">b2</text></g><g class="edge"><path fill="none" stroke="#000" d="M170.74-215.7c.33 7.72.73 16.99 1.1 25.59"/><path stroke="#000" d="m175.34-190.25-3.07 10.15-3.93-9.85 7-.3z"/></g><g class="edge"><path fill="none" stroke="#000" d="M153.84-148.81c-17.51 11.14-43.6 27.75-63.33 40.31"/><path stroke="#000" d="m92.26-105.47-10.32 2.42 6.56-8.32 3.76 5.9z"/></g><g class="edge"><path fill="none" stroke="#000" d="M171.52-143.7c-.66 7.72-1.46 16.99-2.2 25.59"/><path stroke="#000" d="m172.81-117.77-4.34 9.67-2.64-10.27 6.98.6z"/></g><g class="edge"><path fill="none" stroke="#000" d="M155.46-73.46c-6.73 9.06-15.36 20.67-22.92 30.85"/><path stroke="#000" d="m135.28-40.43-8.77 5.94 3.15-10.12 5.62 4.18z"/></g><g class="node"><ellipse fill="none" stroke="#000" cx="115" cy="-381" rx="27" ry="18"/><text text-anchor="middle" x="115" y="-377.3" font-family="Times,serif" font-size="14">start</text></g><g class="edge"><path fill="none" stroke="#000" d="M103.97-364.52c-6.96 9.78-16.1 22.6-23.98 33.66"/><path stroke="#000" d="m82.66-328.57-8.65 6.11 2.95-10.17 5.7 4.06z"/></g><g class="edge"><path fill="none" stroke="#000" d="M126.03-364.52c6.96 9.78 16.1 22.6 23.98 33.66"/><path stroke="#000" d="m153.04-332.63 2.95 10.17-8.65-6.11 5.7-4.06z"/></g></g></svg>