<svg width="248" height="170pt" viewBox="0 0 186 170" xmlns="http://www.w3.org/2000/svg"><g class="graph"><path fill="#fff" stroke="transparent" d="M0 170V0h186v170H0z"/><g class="cluster" transform="translate(4 166)"><path fill="none" stroke="#000" d="M8-79v-75h162v75H8z"/><text text-anchor="middle" x="36" y="-138.8" font-family="Times,serif" font-size="14">Cluster</text></g><g class="node" transform="translate(4 166)"><path fill="none" stroke="#000" d="M42-7v-21h25v21H42z"/><text x="45" y="-13.8" font-family="Times,serif" font-size="14">left</text><path fill="none" stroke="#000" d="M67-7v-21h45v21H67z"/><text x="70" y="-13.8" font-family="Times,serif" font-size="14">middle</text><path fill="none" stroke="#000" d="M112-7v-21h32v21h-32z"/><text x="115" y="-13.8" font-family="Times,serif" font-size="14">right</text></g><g class="node" transform="translate(4 166)"><text text-anchor="middle" x="89" y="-101.3" font-family="Times,serif" font-size="14">This is label for nodeB.</text></g><g class="edge" transform="translate(4 166)"><path fill="none" stroke="#00f" d="M89-86.72v47.31"/><path fill="#00f" stroke="#00f" d="M92.5-39 89-29l-3.5-10h7z"/><text x="89" y="-58.8" font-family="Times,serif" font-weight="bold" font-size="14" fill="#00f">A to B</text></g></g></svg>